SplineFontDB: 3.0
FontName: Xolonium-Dingbats
FullName: Xolonium Dingbats
FamilyName: Xolonium
Weight: Regular
Copyright: Copyright (C) 2011-2014 Severin Meyer
Version: 2.4
ItalicAngle: 0
UnderlinePosition: -75
UnderlineWidth: 70
Ascent: 800
Descent: 200
LayerCount: 2
Layer: 0 0 "Back"  1
Layer: 1 0 "Fore"  0
XUID: [1021 881 1079499186 3173474]
FSType: 0
OS2Version: 3
OS2_WeightWidthSlopeOnly: 0
OS2_UseTypoMetrics: 1
CreationTime: 1377094223
ModificationTime: 1419356753
PfmFamily: 81
TTFWeight: 400
TTFWidth: 5
LineGap: 90
VLineGap: 0
OS2TypoAscent: 0
OS2TypoAOffset: 1
OS2TypoDescent: 0
OS2TypoDOffset: 1
OS2TypoLinegap: 90
OS2WinAscent: 0
OS2WinAOffset: 1
OS2WinDescent: 0
OS2WinDOffset: 1
HheadAscent: 0
HheadAOffset: 1
HheadDescent: 0
HheadDOffset: 1
OS2Vendor: 'PfEd'
MarkAttachClasses: 1
DEI: 91125
LangName: 1033 "" "" "" "" "" "" "" "" "" "" "" "" "" "GNU General Public License, version 2 or later, with GPL Font Exception" "http://www.gnu.org/licenses/gpl-2.0" 
Encoding: UnicodeFull
UnicodeInterp: none
NameList: Adobe Glyph List
DisplaySize: -36
AntiAlias: 1
FitToEm: 1
WinInfo: 8900 50 17
BeginPrivate: 6
BlueValues 21 [0 0 480 480 660 660]
OtherBlues 11 [-225 -225]
ForceBold 5 false
BlueFuzz 1 1
BlueShift 1 7
BlueScale 8 0.039625
EndPrivate
BeginChars: 1114112 63

StartChar: u1F604
Encoding: 128516 128516 0
Width: 900
VWidth: -40
Flags: MW
LayerCount: 2
Fore
SplineSet
70 90 m 2
 70 570 l 2
 70 650 130 690 230 690 c 2
 670 690 l 2
 770 690 830 650 830 570 c 2
 830 90 l 2
 830 10 770 -30 670 -30 c 2
 230 -30 l 2
 130 -30 70 10 70 90 c 2
150 330 m 1
 150 175 284 50 450 50 c 0
 616 50 750 175 750 330 c 1
 150 330 l 1
180 490 m 1
 215 465 l 1
 230 495 260 520 300 520 c 0
 340 520 365 500 385 465 c 1
 420 490 l 1
 400 535 360 575 300 575 c 0
 240 575 200 535 180 490 c 1
480 490 m 1
 515 465 l 1
 530 495 560 520 600 520 c 0
 640 520 665 500 685 465 c 1
 720 490 l 1
 700 535 660 575 600 575 c 0
 540 575 500 535 480 490 c 1
EndSplineSet
Validated: 1
EndChar

StartChar: u1F60E
Encoding: 128526 128526 1
Width: 900
VWidth: -40
Flags: MW
LayerCount: 2
Fore
SplineSet
70 90 m 2
 70 570 l 2
 70 650 130 690 230 690 c 2
 670 690 l 2
 770 690 830 650 830 570 c 2
 830 90 l 2
 830 10 770 -30 670 -30 c 2
 230 -30 l 2
 130 -30 70 10 70 90 c 2
130 560 m 1
 150 380 l 1
 380 360 l 1
 425 490 l 1
 475 490 l 1
 520 360 l 1
 750 380 l 1
 770 560 l 1
 130 560 l 1
280 71 m 1
 500 71 640 120 740 250 c 1
 690 290 l 1
 600 170 450 110 280 110 c 1
 280 71 l 1
EndSplineSet
Validated: 1
EndChar

StartChar: u1F609
Encoding: 128521 128521 2
Width: 900
VWidth: -40
Flags: MW
LayerCount: 2
Fore
SplineSet
70 90 m 2
 70 570 l 2
 70 650 130 690 230 690 c 2
 670 690 l 2
 770 690 830 650 830 570 c 2
 830 90 l 2
 830 10 770 -30 670 -30 c 2
 230 -30 l 2
 130 -30 70 10 70 90 c 2
180 250 m 1
 280 120 420 71 640 71 c 1
 640 110 l 1
 470 110 320 170 230 290 c 1
 180 250 l 1
180 450 m 1
 215 425 l 1
 230 455 260 480 300 480 c 0
 340 480 365 460 385 425 c 1
 420 450 l 1
 400 495 360 535 300 535 c 0
 240 535 200 495 180 450 c 1
510 460 m 0
 510 405 541 360 580 360 c 0
 619 360 650 405 650 460 c 0
 650 515 619 560 580 560 c 0
 541 560 510 515 510 460 c 0
EndSplineSet
Validated: 1
EndChar

StartChar: u1F615
Encoding: 128533 128533 3
Width: 900
VWidth: -40
Flags: MW
LayerCount: 2
Fore
SplineSet
70 90 m 2
 70 570 l 2
 70 650 130 690 230 690 c 2
 670 690 l 2
 770 690 830 650 830 570 c 2
 830 90 l 2
 830 10 770 -30 670 -30 c 2
 230 -30 l 2
 130 -30 70 10 70 90 c 2
240 460 m 0
 240 396 276 345 320 345 c 0
 364 345 400 396 400 460 c 0
 400 524 364 575 320 575 c 0
 276 575 240 524 240 460 c 0
288 137 m 1
 312 82 l 1
 695 255 l 1
 670 310 l 1
 288 137 l 1
515 460 m 0
 515 408 544 365 580 365 c 0
 616 365 645 408 645 460 c 0
 645 512 616 555 580 555 c 0
 544 555 515 512 515 460 c 0
EndSplineSet
Validated: 1
EndChar

StartChar: u1F62E
Encoding: 128558 128558 4
Width: 900
VWidth: -40
Flags: MW
LayerCount: 2
Fore
SplineSet
70 90 m 2
 70 570 l 2
 70 650 130 690 230 690 c 2
 670 690 l 2
 770 690 830 650 830 570 c 2
 830 90 l 2
 830 10 770 -30 670 -30 c 2
 230 -30 l 2
 130 -30 70 10 70 90 c 2
250 460 m 0
 250 405 281 360 320 360 c 0
 359 360 390 405 390 460 c 0
 390 515 359 560 320 560 c 0
 281 560 250 515 250 460 c 0
270 160 m 0
 270 99 351 50 450 50 c 0
 549 50 630 99 630 160 c 0
 630 221 549 270 450 270 c 0
 351 270 270 221 270 160 c 0
510 460 m 0
 510 405 541 360 580 360 c 0
 619 360 650 405 650 460 c 0
 650 515 619 560 580 560 c 0
 541 560 510 515 510 460 c 0
EndSplineSet
Validated: 1
EndChar

StartChar: u1F635
Encoding: 128565 128565 5
Width: 900
VWidth: -40
Flags: MW
LayerCount: 2
Fore
SplineSet
70 90 m 2
 70 570 l 2
 70 650 130 690 230 690 c 2
 670 690 l 2
 770 690 830 650 830 570 c 2
 830 90 l 2
 830 10 770 -30 670 -30 c 2
 230 -30 l 2
 130 -30 70 10 70 90 c 2
180 165 m 1
 205 140 l 1
 238 166 273 185 308 198 c 1
 302 165 294 121 294 111 c 0
 294 61 353 33 400 33 c 0
 445 33 478 53 484 90 c 2
 505 217 l 1
 573 210 636 187 695 140 c 1
 720 165 l 1
 650 250 550 290 450 290 c 0
 350 290 250 250 180 165 c 1
190 390 m 1
 220 360 l 1
 295 430 l 1
 370 360 l 1
 400 390 l 1
 330 465 l 1
 400 540 l 1
 370 570 l 1
 295 500 l 1
 220 570 l 1
 190 540 l 1
 260 465 l 1
 190 390 l 1
369 93 m 1
 395 240 l 1
 418 236 l 1
 393 89 l 1
 369 93 l 1
500 390 m 1
 530 360 l 1
 605 430 l 1
 680 360 l 1
 710 390 l 1
 640 465 l 1
 710 540 l 1
 680 570 l 1
 605 500 l 1
 530 570 l 1
 500 540 l 1
 570 465 l 1
 500 390 l 1
EndSplineSet
Validated: 1
EndChar

StartChar: u1F61E
Encoding: 128542 128542 6
Width: 900
VWidth: -40
Flags: MW
LayerCount: 2
Fore
SplineSet
70 90 m 2
 70 570 l 2
 70 650 130 690 230 690 c 2
 670 690 l 2
 770 690 830 650 830 570 c 2
 830 90 l 2
 830 10 770 -30 670 -30 c 2
 230 -30 l 2
 130 -30 70 10 70 90 c 2
190 120 m 1
 215 100 l 1
 285 170 365 190 450 190 c 0
 535 190 615 170 685 100 c 1
 710 120 l 1
 650 230 540 270 450 270 c 0
 360 270 250 230 190 120 c 1
250 460 m 0
 250 405 281 360 320 360 c 0
 359 360 390 405 390 460 c 0
 390 515 359 560 320 560 c 0
 281 560 250 515 250 460 c 0
510 460 m 0
 510 405 541 360 580 360 c 0
 619 360 650 405 650 460 c 0
 650 515 619 560 580 560 c 0
 541 560 510 515 510 460 c 0
EndSplineSet
Validated: 1
EndChar

StartChar: u1F60A
Encoding: 128522 128522 7
Width: 900
VWidth: -40
Flags: MW
LayerCount: 2
Fore
SplineSet
70 90 m 2
 70 570 l 2
 70 650 130 690 230 690 c 2
 670 690 l 2
 770 690 830 650 830 570 c 2
 830 90 l 2
 830 10 770 -30 670 -30 c 2
 230 -30 l 2
 130 -30 70 10 70 90 c 2
150 330 m 1
 160 210 310 130 450 130 c 0
 590 130 740 210 750 330 c 1
 650 280 570 270 450 270 c 0
 330 270 250 280 150 330 c 1
180 490 m 1
 215 465 l 1
 230 495 260 520 300 520 c 0
 340 520 365 500 385 465 c 1
 420 490 l 1
 400 535 360 575 300 575 c 0
 240 575 200 535 180 490 c 1
480 490 m 1
 515 465 l 1
 530 495 560 520 600 520 c 0
 640 520 665 500 685 465 c 1
 720 490 l 1
 700 535 660 575 600 575 c 0
 540 575 500 535 480 490 c 1
EndSplineSet
Validated: 1
EndChar

StartChar: uni2605
Encoding: 9733 9733 8
Width: 880
VWidth: 0
Flags: MW
LayerCount: 2
Fore
SplineSet
60 445 m 1
 350 445 l 1
 440 720 l 1
 530 445 l 1
 820 445 l 1
 585 275 l 1
 675 0 l 1
 440 170 l 1
 205 0 l 1
 295 275 l 1
 60 445 l 1
EndSplineSet
Validated: 1
EndChar

StartChar: uni2747
Encoding: 10055 10055 9
Width: 970
VWidth: 0
Flags: MW
LayerCount: 2
Fore
SplineSet
70 462 m 0
 70 487 92 495 121 495 c 0
 154 495 197 467 197 445 c 0
 197 431 178 420 141 420 c 0
 96 420 70 438 70 462 c 0
145 227 m 0
 145 288 323 228 323 328 c 0
 323 370 248 383 248 413 c 0
 248 451 390 409 390 476 c 0
 390 518 321 525 321 581 c 0
 321 595 329 608 344 608 c 0
 411 608 374 475 475 475 c 0
 513 475 533 503 533 546 c 0
 533 597 513 614 513 672 c 0
 513 695 527 720 556 720 c 0
 583 720 601 695 601 669 c 0
 601 602 571 600 571 540 c 0
 571 450 611 428 685 428 c 0
 727 428 748 508 792 508 c 0
 827 508 841 486 841 463 c 0
 841 408 692 446 692 320 c 0
 692 170 900 257 900 161 c 0
 900 140 889 122 865 122 c 0
 792 122 801 199 650 199 c 0
 595 199 585 150 585 109 c 0
 585 54 623 45 623 15 c 0
 623 -10 603 -22 580 -22 c 0
 515 -22 586 171 458 171 c 0
 327 171 378 -60 259 -60 c 0
 234 -60 217 -45 217 -18 c 0
 217 84 359 81 359 187 c 0
 359 226 328 238 302 238 c 0
 251 238 214 204 181 204 c 0
 160 204 145 211 145 227 c 0
690 -15 m 0
 690 10 710 30 735 30 c 0
 760 30 780 10 780 -15 c 0
 780 -40 760 -60 735 -60 c 0
 710 -60 690 -40 690 -15 c 0
EndSplineSet
Validated: 1
EndChar

StartChar: uni2748
Encoding: 10056 10056 10
Width: 1000
VWidth: 0
Flags: MW
LayerCount: 2
Fore
SplineSet
145 244 m 0
 145 272 167 294 195 294 c 0
 223 294 245 272 245 244 c 0
 245 216 223 194 195 194 c 0
 167 194 145 216 145 244 c 0
70 499 m 0
 70 535 100 571 143 571 c 0
 231 571 189 474 343 474 c 0
 403 474 400 513 453 513 c 0
 500 513 527 483 546 483 c 0
 606 483 572 720 668 720 c 0
 718 720 738 680 738 644 c 0
 738 586 597 588 597 452 c 0
 597 388 692 387 692 346 c 0
 692 325 646 319 646 271 c 0
 646 146 863 177 863 80 c 0
 863 44 831 19 789 19 c 0
 704 19 686 240 551 240 c 0
 491 240 417 196 367 196 c 0
 335 196 313 215 313 275 c 0
 313 309 331 336 331 374 c 0
 331 514 70 412 70 499 c 0
173 10 m 0
 173 68 276 174 300 174 c 0
 315 174 317 139 317 115 c 0
 317 48 291 -60 229 -60 c 0
 202 -60 173 -34 173 10 c 0
315 619 m 0
 315 649 340 674 370 674 c 0
 400 674 425 649 425 619 c 0
 425 589 400 564 370 564 c 0
 340 564 315 589 315 619 c 0
465 65 m 0
 465 101 494 130 530 130 c 0
 566 130 595 101 595 65 c 0
 595 29 566 0 530 0 c 0
 494 0 465 29 465 65 c 0
728 345 m 0
 728 370 799 381 844 381 c 0
 905 381 930 353 930 316 c 0
 930 286 906 255 868 255 c 0
 822 255 728 320 728 345 c 0
EndSplineSet
Validated: 1
EndChar

StartChar: uni2764
Encoding: 10084 10084 11
Width: 900
VWidth: 0
Flags: MW
LayerCount: 2
Fore
SplineSet
70 470 m 0
 70 575 155 660 260 660 c 0
 365 660 450 575 450 470 c 1
 450 575 535 660 640 660 c 0
 745 660 830 575 830 470 c 0
 830 380 790 340 740 290 c 2
 450 0 l 1
 160 290 l 2
 110 340 70 380 70 470 c 0
EndSplineSet
Validated: 1
EndChar

StartChar: uni26A0
Encoding: 9888 9888 12
Width: 910
VWidth: 0
Flags: MW
LayerCount: 2
Fore
SplineSet
70 60 m 1
 420 660 l 1
 490 660 l 1
 840 60 l 1
 805 0 l 1
 105 0 l 1
 70 60 l 1
395 75 m 1
 515 75 l 1
 515 155 l 1
 395 155 l 1
 395 75 l 1
395 225 m 1
 515 225 l 1
 515 455 l 1
 395 455 l 1
 395 225 l 1
EndSplineSet
Validated: 1
EndChar

StartChar: uni2623
Encoding: 9763 9763 13
Width: 930
VWidth: 0
Flags: MW
LayerCount: 2
Fore
SplineSet
70 245 m 0
 70 329 120 412 212 460 c 1
 212 618 302 708 420 720 c 1
 348 694 300 632 300 555 c 0
 300 464 374 390 465 390 c 0
 556 390 630 464 630 555 c 0
 630 632 582 694 510 720 c 1
 628 708 718 618 718 460 c 1
 810 412 860 329 860 245 c 0
 860 210 851 176 839 152 c 1
 841 161 842 174 842 188 c 0
 842 284 766 360 673 360 c 0
 582 360 508 286 508 195 c 0
 508 104 583 30 675 30 c 0
 724 30 764 49 793 74 c 1
 753 17 690 -20 610 -20 c 0
 552 -20 490 8 465 25 c 1
 440 8 378 -20 320 -20 c 0
 240 -20 177 17 137 74 c 1
 166 49 206 30 255 30 c 0
 347 30 422 104 422 195 c 0
 422 286 348 360 257 360 c 0
 164 360 88 284 88 188 c 0
 88 174 89 161 91 152 c 1
 79 176 70 210 70 245 c 0
225 325 m 1
 290 325 l 1
 290 229 340 183 387 158 c 1
 354 102 l 1
 277 145 225 215 225 325 c 1
336 518 m 1
 373 542 418 555 465 555 c 0
 512 555 557 542 594 518 c 1
 562 461 l 1
 534 479 501 490 465 490 c 0
 429 490 396 479 368 461 c 1
 336 518 l 1
415 315 m 0
 415 287 437 265 465 265 c 0
 493 265 515 287 515 315 c 0
 515 343 493 365 465 365 c 0
 437 365 415 343 415 315 c 0
543 158 m 1
 590 183 640 229 640 325 c 1
 705 325 l 1
 705 215 653 145 576 102 c 1
 543 158 l 1
EndSplineSet
Validated: 1
EndChar

StartChar: uni269B
Encoding: 9883 9883 14
Width: 800
VWidth: 0
Flags: MW
LayerCount: 2
Fore
SplineSet
70 127 m 0
 70 240 165 410 329 541 c 1
 289 560 253 570 222 570 c 0
 169 570 136 540 136 484 c 0
 136 460 142 432 153 403 c 1
 123 359 l 1
 89 422 70 483 70 533 c 0
 70 620 125 660 197 660 c 0
 253 660 323 637 400 590 c 1
 474 635 545 660 603 660 c 0
 675 660 730 620 730 533 c 0
 730 475 705 404 660 330 c 1
 705 256 730 185 730 127 c 0
 730 40 675 0 603 0 c 0
 552 0 492 19 429 53 c 1
 473 83 l 1
 502 72 530 66 554 66 c 0
 607 66 640 96 640 152 c 0
 640 183 630 219 611 259 c 1
 524 145 343 0 197 0 c 0
 125 0 70 40 70 127 c 0
136 176 m 0
 136 120 169 90 222 90 c 0
 330 90 485 208 569 330 c 1
 514 408 441 475 369 519 c 1
 243 428 136 279 136 176 c 0
300 340 m 0
 300 387 338 425 385 425 c 0
 432 425 470 387 470 340 c 0
 470 293 432 255 385 255 c 0
 338 255 300 293 300 340 c 0
441 563 m 1
 493 527 565 462 611 401 c 1
 630 441 640 477 640 508 c 0
 640 564 607 594 554 594 c 0
 522 594 482 583 441 563 c 1
EndSplineSet
Validated: 1
EndChar

StartChar: uni2622
Encoding: 9762 9762 15
Width: 920
VWidth: 0
Flags: MW
LayerCount: 2
Fore
SplineSet
70 330 m 1
 70 474 148 601 265 668 c 1
 400 434 l 1
 364 413 340 374 340 330 c 1
 70 330 l 1
265 -8 m 1
 400 226 l 1
 418 216 438 210 460 210 c 0
 482 210 502 216 520 226 c 1
 655 -8 l 1
 598 -41 531 -60 460 -60 c 0
 389 -60 322 -41 265 -8 c 1
380 330 m 0
 380 374 416 410 460 410 c 0
 504 410 540 374 540 330 c 0
 540 286 504 250 460 250 c 0
 416 250 380 286 380 330 c 0
520 434 m 1
 655 668 l 1
 772 601 850 474 850 330 c 1
 580 330 l 1
 580 374 556 413 520 434 c 1
EndSplineSet
Validated: 1
EndChar

StartChar: uni2699
Encoding: 9881 9881 16
Width: 860
VWidth: 0
Flags: MW
LayerCount: 2
Fore
SplineSet
70 290 m 1
 70 370 l 1
 169 398 l 1
 197 467 l 1
 147 556 l 1
 204 613 l 1
 293 563 l 1
 362 591 l 1
 390 690 l 1
 470 690 l 1
 498 591 l 1
 567 563 l 1
 656 613 l 1
 713 556 l 1
 663 467 l 1
 691 398 l 1
 790 370 l 1
 790 290 l 1
 691 262 l 1
 663 193 l 1
 713 104 l 1
 656 47 l 1
 567 97 l 1
 498 69 l 1
 470 -30 l 1
 390 -30 l 1
 362 69 l 1
 293 97 l 1
 204 47 l 1
 147 104 l 1
 197 193 l 1
 169 262 l 1
 70 290 l 1
330 330 m 0
 330 275 375 230 430 230 c 0
 485 230 530 275 530 330 c 0
 530 385 485 430 430 430 c 0
 375 430 330 385 330 330 c 0
EndSplineSet
Validated: 1
EndChar

StartChar: uni2620
Encoding: 9760 9760 17
Width: 1000
VWidth: 0
Flags: MW
LayerCount: 2
Fore
SplineSet
70 220 m 1
 70 267 98 258 98 293 c 0
 98 334 76 325 76 360 c 0
 76 378 106 394 142 394 c 1
 153 332 166 314 205 295 c 1
 285 185 l 1
 195 220 170 220 70 220 c 1
158 29 m 1
 158 54 176 71 196 71 c 0
 239 71 297 85 350 115 c 1
 364 65 l 1
 392 44 l 1
 295 5 301 -60 255 -60 c 0
 216 -60 244 10 158 29 c 1
230 310 m 1
 263 358 l 1
 240 545 l 1
 240 635 390 720 500 720 c 0
 610 720 760 635 760 545 c 1
 737 358 l 1
 770 310 l 1
 683 190 l 1
 628 180 l 1
 620 137 l 1
 545 95 l 1
 455 95 l 1
 380 137 l 1
 372 180 l 1
 317 190 l 1
 230 310 l 1
310 341 m 0
 310 285 323 254 347 254 c 0
 403 254 466 281 466 335 c 0
 466 366 377 390 363 390 c 0
 326 390 310 374 310 341 c 0
380 119 m 1
 410 102 l 1
 410 68 l 1
 390 83 l 1
 380 119 l 1
420 63 m 1
 420 96 l 1
 450 81 l 1
 450 47 l 1
 420 63 l 1
455 193 m 1
 475 178 l 1
 500 193 l 1
 525 178 l 1
 545 193 l 1
 500 273 l 1
 455 193 l 1
460 45 m 1
 460 80 l 1
 495 80 l 1
 495 45 l 1
 460 45 l 1
505 45 m 1
 505 80 l 1
 540 80 l 1
 540 45 l 1
 505 45 l 1
534 335 m 0
 534 281 597 254 653 254 c 0
 677 254 690 285 690 341 c 0
 690 374 674 390 637 390 c 0
 623 390 534 366 534 335 c 0
550 47 m 1
 550 81 l 1
 580 96 l 1
 580 63 l 1
 550 47 l 1
590 68 m 1
 590 102 l 1
 620 119 l 1
 610 83 l 1
 590 68 l 1
608 44 m 1
 636 65 l 1
 650 115 l 1
 703 85 761 71 804 71 c 0
 824 71 842 54 842 29 c 1
 756 10 784 -60 745 -60 c 0
 699 -60 705 5 608 44 c 1
715 185 m 1
 795 295 l 1
 834 314 847 332 858 394 c 1
 894 394 924 378 924 360 c 0
 924 325 902 334 902 293 c 0
 902 258 930 267 930 220 c 1
 830 220 805 220 715 185 c 1
EndSplineSet
Validated: 1
EndChar

StartChar: filledbox
Encoding: 9632 9632 18
Width: 800
VWidth: 0
Flags: W
HStem: 0 660<70 70>
VStem: 70 660<0 660>
LayerCount: 2
Fore
SplineSet
70 0 m 1
 70 660 l 1
 730 660 l 1
 730 0 l 1
 70 0 l 1
EndSplineSet
Validated: 1
EndChar

StartChar: uni25AE
Encoding: 9646 9646 19
Width: 470
VWidth: 0
Flags: MW
HStem: 0 660<70 70>
VStem: 70 330<0 660>
LayerCount: 2
Fore
SplineSet
70 0 m 1
 70 660 l 1
 400 660 l 1
 400 0 l 1
 70 0 l 1
EndSplineSet
Validated: 1
EndChar

StartChar: filledrect
Encoding: 9644 9644 20
Width: 800
VWidth: 0
Flags: MW
HStem: 165 330<70 730>
VStem: 70 660<495 495>
LayerCount: 2
Fore
SplineSet
70 165 m 1
 70 495 l 1
 730 495 l 1
 730 165 l 1
 70 165 l 1
EndSplineSet
Validated: 1
EndChar

StartChar: uni25B6
Encoding: 9654 9654 21
Width: 750
VWidth: 0
Flags: MW
HStem: -30 720
VStem: 70 620
LayerCount: 2
Fore
SplineSet
70 -30 m 1
 70 690 l 1
 690 330 l 1
 70 -30 l 1
EndSplineSet
Validated: 1
EndChar

StartChar: uni25C0
Encoding: 9664 9664 22
Width: 750
VWidth: 0
Flags: MW
HStem: -30 720
VStem: 60 620
LayerCount: 2
Fore
SplineSet
60 330 m 1
 680 690 l 1
 680 -30 l 1
 60 330 l 1
EndSplineSet
Validated: 1
EndChar

StartChar: triagup
Encoding: 9650 9650 23
Width: 840
VWidth: 0
Flags: MW
HStem: 0 620
VStem: 60 720
LayerCount: 2
Fore
SplineSet
60 0 m 1
 420 620 l 1
 780 0 l 1
 60 0 l 1
EndSplineSet
Validated: 1
EndChar

StartChar: triagdn
Encoding: 9660 9660 24
Width: 840
VWidth: 0
Flags: MW
HStem: 40 620
VStem: 60 720
LayerCount: 2
Fore
SplineSet
60 660 m 1
 780 660 l 1
 420 40 l 1
 60 660 l 1
EndSplineSet
Validated: 1
EndChar

StartChar: uni25E4
Encoding: 9700 9700 25
Width: 610
VWidth: 0
Flags: MW
HStem: 180 480
VStem: 70 480
LayerCount: 2
Fore
SplineSet
70 180 m 1
 70 660 l 1
 550 660 l 1
 70 180 l 1
EndSplineSet
Validated: 1
EndChar

StartChar: uni25B0
Encoding: 9648 9648 26
Width: 880
VWidth: 0
Flags: W
HStem: 0 21G<0 453.333> 640 20G<426.667 880>
LayerCount: 2
Fore
SplineSet
0 0 m 1
 440 660 l 1
 880 660 l 1
 440 0 l 1
 0 0 l 1
EndSplineSet
Validated: 1
EndChar

StartChar: uni25E2
Encoding: 9698 9698 27
Width: 610
VWidth: 0
Flags: MW
HStem: 0 480
VStem: 60 480
LayerCount: 2
Fore
SplineSet
60 0 m 1
 540 480 l 1
 540 0 l 1
 60 0 l 1
EndSplineSet
Validated: 1
EndChar

StartChar: uni25E3
Encoding: 9699 9699 28
Width: 610
VWidth: 0
Flags: MW
HStem: 0 480
VStem: 70 480
LayerCount: 2
Fore
SplineSet
70 0 m 1
 70 480 l 1
 550 0 l 1
 70 0 l 1
EndSplineSet
Validated: 1
EndChar

StartChar: uni25E5
Encoding: 9701 9701 29
Width: 610
VWidth: 0
Flags: MW
HStem: 180 480
VStem: 60 480
LayerCount: 2
Fore
SplineSet
60 660 m 1
 540 660 l 1
 540 180 l 1
 60 660 l 1
EndSplineSet
Validated: 1
EndChar

StartChar: u1F52B
Encoding: 128299 128299 30
Width: 1230
Flags: MW
LayerCount: 2
Fore
SplineSet
70 360 m 1
 90 540 l 1
 265 555 l 1
 280 610 l 1
 635 610 897 589 1134 501 c 1
 1124 461 l 1
 1160 455 l 1
 1150 365 l 1
 1099 361 l 1
 1090 325 l 1
 895 325 l 1
 830 265 l 1
 668 265 l 1
 490 0 l 1
 137 0 l 1
 109 47 l 1
 151 114 235 248 235 278 c 0
 235 327 209 333 70 360 c 1
341 78 m 1
 358 50 l 1
 465 50 l 1
 610 275 l 1
 600 325 540 325 460 325 c 1
 485 205 l 1
 390 190 l 1
 341 78 l 1
EndSplineSet
Validated: 1
EndChar

StartChar: u1F603
Encoding: 128515 128515 31
Width: 900
VWidth: -40
Flags: MW
LayerCount: 2
Fore
SplineSet
70 90 m 2
 70 570 l 2
 70 650 130 690 230 690 c 2
 670 690 l 2
 770 690 830 650 830 570 c 2
 830 90 l 2
 830 10 770 -30 670 -30 c 2
 230 -30 l 2
 130 -30 70 10 70 90 c 2
170 270 m 1
 220 160 330 90 450 90 c 0
 570 90 680 160 730 270 c 1
 705 290 l 1
 630 210 560 170 450 170 c 0
 340 170 270 210 195 290 c 1
 170 270 l 1
250 460 m 0
 250 405 281 360 320 360 c 0
 359 360 390 405 390 460 c 0
 390 515 359 560 320 560 c 0
 281 560 250 515 250 460 c 0
510 460 m 0
 510 405 541 360 580 360 c 0
 619 360 650 405 650 460 c 0
 650 515 619 560 580 560 c 0
 541 560 510 515 510 460 c 0
EndSplineSet
Validated: 1
EndChar

StartChar: u1F601
Encoding: 128513 128513 32
Width: 900
VWidth: -20
Flags: MW
LayerCount: 2
Fore
SplineSet
70 90 m 2
 70 570 l 2
 70 650 130 690 230 690 c 2
 670 690 l 2
 770 690 830 650 830 570 c 2
 830 90 l 2
 830 10 770 -30 670 -30 c 2
 230 -30 l 2
 130 -30 70 10 70 90 c 2
150 330 m 1
 150 238 197 157 270 106 c 1
 270 330 l 1
 150 330 l 1
180 490 m 1
 215 465 l 1
 230 495 260 520 300 520 c 0
 340 520 365 500 385 465 c 1
 420 490 l 1
 400 535 360 575 300 575 c 0
 240 575 200 535 180 490 c 1
300 87 m 1
 340 65 386 52 435 50 c 1
 435 330 l 1
 300 330 l 1
 300 87 l 1
465 50 m 1
 514 52 560 65 600 87 c 1
 600 330 l 1
 465 330 l 1
 465 50 l 1
480 490 m 1
 515 465 l 1
 530 495 560 520 600 520 c 0
 640 520 665 500 685 465 c 1
 720 490 l 1
 700 535 660 575 600 575 c 0
 540 575 500 535 480 490 c 1
630 106 m 1
 703 157 750 238 750 330 c 1
 630 330 l 1
 630 106 l 1
EndSplineSet
Validated: 1
EndChar

StartChar: u1F610
Encoding: 128528 128528 33
Width: 900
VWidth: -40
Flags: MW
LayerCount: 2
Fore
SplineSet
70 90 m 2
 70 570 l 2
 70 650 130 690 230 690 c 2
 670 690 l 2
 770 690 830 650 830 570 c 2
 830 90 l 2
 830 10 770 -30 670 -30 c 2
 230 -30 l 2
 130 -30 70 10 70 90 c 2
240 140 m 1
 660 140 l 1
 660 200 l 1
 240 200 l 1
 240 140 l 1
250 460 m 0
 250 405 281 360 320 360 c 0
 359 360 390 405 390 460 c 0
 390 515 359 560 320 560 c 0
 281 560 250 515 250 460 c 0
510 460 m 0
 510 405 541 360 580 360 c 0
 619 360 650 405 650 460 c 0
 650 515 619 560 580 560 c 0
 541 560 510 515 510 460 c 0
EndSplineSet
Validated: 1
EndChar

StartChar: u1F612
Encoding: 128530 128530 34
Width: 900
VWidth: -40
Flags: MW
LayerCount: 2
Fore
SplineSet
70 90 m 2
 70 570 l 2
 70 650 130 690 230 690 c 2
 670 690 l 2
 770 690 830 650 830 570 c 2
 830 90 l 2
 830 10 770 -30 670 -30 c 2
 230 -30 l 2
 130 -30 70 10 70 90 c 2
160 475 m 1
 250 475 l 1
 250 410 275 360 320 360 c 0
 365 360 395 410 395 520 c 1
 160 520 l 1
 160 475 l 1
240 140 m 1
 660 140 l 1
 660 200 l 1
 240 200 l 1
 240 140 l 1
455 475 m 1
 545 475 l 1
 545 410 570 360 615 360 c 0
 660 360 690 410 690 520 c 1
 455 520 l 1
 455 475 l 1
EndSplineSet
Validated: 1
EndChar

StartChar: u1F618
Encoding: 128536 128536 35
Width: 1340
VWidth: -40
Flags: MW
LayerCount: 2
Fore
SplineSet
70 90 m 2
 70 570 l 2
 70 650 130 690 230 690 c 2
 670 690 l 2
 770 690 830 650 830 570 c 2
 830 90 l 2
 830 10 770 -30 670 -30 c 2
 230 -30 l 2
 130 -30 70 10 70 90 c 2
180 450 m 1
 215 425 l 1
 230 455 260 480 300 480 c 0
 340 480 365 460 385 425 c 1
 420 450 l 1
 400 495 360 535 300 535 c 0
 240 535 200 495 180 450 c 1
450 21 m 1
 571 31 631 63 631 99 c 0
 631 119 612 141 575 161 c 1
 612 181 631 203 631 223 c 0
 631 259 571 291 450 301 c 1
 450 256 l 1
 536 249 565 233 565 216 c 0
 565 197 527 176 495 176 c 1
 495 146 l 1
 527 146 565 126 565 107 c 0
 565 90 536 73 450 66 c 1
 450 21 l 1
510 460 m 0
 510 405 541 360 580 360 c 0
 619 360 650 405 650 460 c 0
 650 515 619 560 580 560 c 0
 541 560 510 515 510 460 c 0
890 685 m 0
 890 737 933 780 985 780 c 0
 1037 780 1080 737 1080 685 c 1
 1080 737 1123 780 1175 780 c 0
 1227 780 1270 737 1270 685 c 0
 1270 640 1250 620 1225 595 c 2
 1080 450 l 1
 935 595 l 2
 910 620 890 640 890 685 c 0
EndSplineSet
Validated: 1
EndChar

StartChar: u1F61B
Encoding: 128539 128539 36
Width: 900
VWidth: -40
Flags: MW
LayerCount: 2
Fore
SplineSet
70 90 m 2
 70 570 l 2
 70 650 130 690 230 690 c 2
 670 690 l 2
 770 690 830 650 830 570 c 2
 830 90 l 2
 830 10 770 -30 670 -30 c 2
 230 -30 l 2
 130 -30 70 10 70 90 c 2
180 295 m 1
 241 221 324 181 410 172 c 1
 426 78 l 2
 432 41 465 21 510 21 c 0
 557 21 616 49 616 99 c 0
 616 108 606 164 599 202 c 1
 644 223 686 253 720 295 c 1
 695 320 l 1
 620 260 540 240 450 240 c 0
 360 240 280 260 205 320 c 1
 180 295 l 1
250 460 m 0
 250 405 281 360 320 360 c 0
 359 360 390 405 390 460 c 0
 390 515 359 560 320 560 c 0
 281 560 250 515 250 460 c 0
497 196 m 1
 520 200 l 1
 541 81 l 1
 517 77 l 1
 497 196 l 1
510 460 m 0
 510 405 541 360 580 360 c 0
 619 360 650 405 650 460 c 0
 650 515 619 560 580 560 c 0
 541 560 510 515 510 460 c 0
EndSplineSet
Validated: 1
EndChar

StartChar: u1F61D
Encoding: 128541 128541 37
Width: 900
VWidth: -20
Flags: MW
LayerCount: 2
Fore
SplineSet
70 90 m 2
 70 570 l 2
 70 650 130 690 230 690 c 2
 670 690 l 2
 770 690 830 650 830 570 c 2
 830 90 l 2
 830 10 770 -30 670 -30 c 2
 230 -30 l 2
 130 -30 70 10 70 90 c 2
180 185 m 1
 205 160 l 1
 264 207 327 230 395 237 c 1
 416 110 l 2
 422 73 455 53 500 53 c 0
 547 53 606 81 606 131 c 0
 606 141 598 185 592 218 c 1
 627 205 662 186 695 160 c 1
 720 185 l 1
 650 270 550 310 450 310 c 0
 350 310 250 270 180 185 c 1
190 415 m 1
 210 380 l 1
 410 470 l 1
 410 510 l 1
 210 600 l 1
 190 565 l 1
 330 490 l 1
 190 415 l 1
482 256 m 1
 505 260 l 1
 531 113 l 1
 507 109 l 1
 482 256 l 1
490 470 m 1
 690 380 l 1
 710 415 l 1
 570 490 l 1
 710 565 l 1
 690 600 l 1
 490 510 l 1
 490 470 l 1
EndSplineSet
Validated: 1
EndChar

StartChar: u1F620
Encoding: 128544 128544 38
Width: 900
VWidth: -40
Flags: MW
LayerCount: 2
Fore
SplineSet
70 90 m 2
 70 570 l 2
 70 650 130 690 230 690 c 2
 670 690 l 2
 770 690 830 650 830 570 c 2
 830 90 l 2
 830 10 770 -30 670 -30 c 2
 230 -30 l 2
 130 -30 70 10 70 90 c 2
190 120 m 1
 215 100 l 1
 285 170 365 190 450 190 c 0
 535 190 615 170 685 100 c 1
 710 120 l 1
 650 230 540 270 450 270 c 0
 360 270 250 230 190 120 c 1
250 460 m 0
 250 405 281 360 320 360 c 0
 355 360 385 395 390 445 c 1
 290 550 l 1
 267 535 250 500 250 460 c 0
510 445 m 1
 515 395 545 360 580 360 c 0
 619 360 650 405 650 460 c 0
 650 500 633 535 610 550 c 1
 510 445 l 1
EndSplineSet
Validated: 1
EndChar

StartChar: u1F623
Encoding: 128547 128547 39
Width: 900
VWidth: -40
Flags: MW
LayerCount: 2
Fore
SplineSet
70 90 m 2
 70 570 l 2
 70 650 130 690 230 690 c 2
 670 690 l 2
 770 690 830 650 830 570 c 2
 830 90 l 2
 830 10 770 -30 670 -30 c 2
 230 -30 l 2
 130 -30 70 10 70 90 c 2
190 120 m 1
 215 100 l 1
 285 170 365 190 450 190 c 0
 535 190 615 170 685 100 c 1
 710 120 l 1
 650 230 540 270 450 270 c 0
 360 270 250 230 190 120 c 1
190 385 m 1
 210 350 l 1
 410 440 l 1
 410 480 l 1
 210 570 l 1
 190 535 l 1
 330 460 l 1
 190 385 l 1
490 440 m 1
 690 350 l 1
 710 385 l 1
 570 460 l 1
 710 535 l 1
 690 570 l 1
 490 480 l 1
 490 440 l 1
EndSplineSet
Validated: 1
EndChar

StartChar: u1F632
Encoding: 128562 128562 40
Width: 900
VWidth: -40
Flags: MW
LayerCount: 2
Fore
SplineSet
70 90 m 2
 70 570 l 2
 70 650 130 690 230 690 c 2
 670 690 l 2
 770 690 830 650 830 570 c 2
 830 90 l 2
 830 10 770 -30 670 -30 c 2
 230 -30 l 2
 130 -30 70 10 70 90 c 2
190 460 m 0
 190 399 239 350 300 350 c 0
 361 350 410 399 410 460 c 0
 410 521 361 570 300 570 c 0
 239 570 190 521 190 460 c 0
191 70 m 1
 709 70 l 1
 697 193 585 290 450 290 c 0
 315 290 203 193 191 70 c 1
260 460 m 0
 260 482 278 500 300 500 c 0
 322 500 340 482 340 460 c 0
 340 438 322 420 300 420 c 0
 278 420 260 438 260 460 c 0
490 460 m 0
 490 399 539 350 600 350 c 0
 661 350 710 399 710 460 c 0
 710 521 661 570 600 570 c 0
 539 570 490 521 490 460 c 0
560 460 m 0
 560 482 578 500 600 500 c 0
 622 500 640 482 640 460 c 0
 640 438 622 420 600 420 c 0
 578 420 560 438 560 460 c 0
EndSplineSet
Validated: 1
EndChar

StartChar: u1F634
Encoding: 128564 128564 41
Width: 1420
VWidth: -40
Flags: MW
LayerCount: 2
Fore
SplineSet
70 90 m 2
 70 570 l 2
 70 650 130 690 230 690 c 2
 670 690 l 2
 770 690 830 650 830 570 c 2
 830 90 l 2
 830 10 770 -30 670 -30 c 2
 230 -30 l 2
 130 -30 70 10 70 90 c 2
180 465 m 1
 200 420 240 380 300 380 c 0
 360 380 400 420 420 465 c 1
 385 490 l 1
 365 455 340 435 300 435 c 0
 260 435 230 460 215 490 c 1
 180 465 l 1
340 125 m 0
 340 84 389 50 450 50 c 0
 511 50 560 84 560 125 c 0
 560 166 511 200 450 200 c 0
 389 200 340 166 340 125 c 0
480 465 m 1
 500 420 540 380 600 380 c 0
 660 380 700 420 720 465 c 1
 685 490 l 1
 665 455 640 435 600 435 c 0
 560 435 530 460 515 490 c 1
 480 465 l 1
880 530 m 1
 880 560 l 1
 995 660 l 1
 885 660 l 1
 885 690 l 1
 1055 690 l 1
 1055 660 l 1
 945 560 l 1
 1060 560 l 1
 1060 530 l 1
 880 530 l 1
1110 530 m 1
 1110 570 l 1
 1265 710 l 1
 1120 710 l 1
 1120 750 l 1
 1345 750 l 1
 1345 710 l 1
 1190 570 l 1
 1350 570 l 1
 1350 530 l 1
 1110 530 l 1
EndSplineSet
Validated: 1
EndChar

StartChar: u1F62D
Encoding: 128557 128557 42
Width: 1600
VWidth: -40
Flags: MW
LayerCount: 2
Fore
SplineSet
70 432 m 0
 70 483 107 495 266 543 c 1
 186 387 174 369 132 369 c 0
 99 369 70 397 70 432 c 0
105 700 m 0
 105 745 143 780 186 780 c 0
 222 780 269 748 400 655 c 1
 294 634 212 618 187 618 c 0
 142 618 105 654 105 700 c 0
420 90 m 2
 420 570 l 2
 420 650 480 690 580 690 c 2
 1020 690 l 2
 1120 690 1180 650 1180 570 c 2
 1180 90 l 2
 1180 10 1120 -30 1020 -30 c 2
 580 -30 l 2
 480 -30 420 10 420 90 c 2
510 245 m 0
 510 145 565 80 630 80 c 0
 700 80 710 145 800 145 c 0
 890 145 900 80 970 80 c 0
 1035 80 1090 145 1090 245 c 0
 1090 345 1035 410 970 410 c 0
 900 410 890 345 800 345 c 0
 710 345 700 410 630 410 c 0
 565 410 510 345 510 245 c 0
530 510 m 1
 565 485 l 1
 580 515 610 540 650 540 c 0
 690 540 715 520 735 485 c 1
 770 510 l 1
 750 555 710 595 650 595 c 0
 590 595 550 555 530 510 c 1
830 510 m 1
 865 485 l 1
 880 515 910 540 950 540 c 0
 990 540 1015 520 1035 485 c 1
 1070 510 l 1
 1050 555 1010 595 950 595 c 0
 890 595 850 555 830 510 c 1
1200 655 m 1
 1331 748 1378 780 1414 780 c 0
 1457 780 1495 745 1495 700 c 0
 1495 654 1458 618 1413 618 c 0
 1388 618 1306 634 1200 655 c 1
1334 543 m 1
 1493 495 1530 483 1530 432 c 0
 1530 397 1501 369 1468 369 c 0
 1426 369 1414 387 1334 543 c 1
EndSplineSet
Validated: 1
EndChar

StartChar: u1F606
Encoding: 128518 128518 43
Width: 900
VWidth: -20
Flags: MW
LayerCount: 2
Fore
SplineSet
70 90 m 2
 70 570 l 2
 70 650 130 690 230 690 c 2
 670 690 l 2
 770 690 830 650 830 570 c 2
 830 90 l 2
 830 10 770 -30 670 -30 c 2
 230 -30 l 2
 130 -30 70 10 70 90 c 2
150 330 m 1
 150 175 284 50 450 50 c 0
 616 50 750 175 750 330 c 1
 150 330 l 1
190 415 m 1
 210 380 l 1
 410 470 l 1
 410 510 l 1
 210 600 l 1
 190 565 l 1
 330 490 l 1
 190 415 l 1
490 470 m 1
 690 380 l 1
 710 415 l 1
 570 490 l 1
 710 565 l 1
 690 600 l 1
 490 510 l 1
 490 470 l 1
EndSplineSet
Validated: 1
EndChar

StartChar: u1F607
Encoding: 128519 128519 44
Width: 900
VWidth: -20
Flags: MW
LayerCount: 2
Fore
SplineSet
70 90 m 2
 70 570 l 2
 70 650 130 690 230 690 c 2
 670 690 l 2
 770 690 830 650 830 570 c 2
 830 90 l 2
 830 10 770 -30 670 -30 c 2
 230 -30 l 2
 130 -30 70 10 70 90 c 2
105 775 m 0
 105 839 259 890 450 890 c 0
 641 890 795 839 795 775 c 0
 795 755 780 736 753 720 c 1
 639 720 l 1
 665 731 680 745 680 760 c 0
 680 799 577 830 450 830 c 0
 323 830 220 799 220 760 c 0
 220 745 235 731 261 720 c 1
 147 720 l 1
 120 736 105 755 105 775 c 0
170 270 m 1
 220 160 330 90 450 90 c 0
 570 90 680 160 730 270 c 1
 705 290 l 1
 630 210 560 170 450 170 c 0
 340 170 270 210 195 290 c 1
 170 270 l 1
180 465 m 1
 200 420 240 380 300 380 c 0
 360 380 400 420 420 465 c 1
 385 490 l 1
 365 455 340 435 300 435 c 0
 260 435 230 460 215 490 c 1
 180 465 l 1
480 465 m 1
 500 420 540 380 600 380 c 0
 660 380 700 420 720 465 c 1
 685 490 l 1
 665 455 640 435 600 435 c 0
 560 435 530 460 515 490 c 1
 480 465 l 1
EndSplineSet
Validated: 1
EndChar

StartChar: u1F608
Encoding: 128520 128520 45
Width: 1040
VWidth: -20
Flags: MW
LayerCount: 2
Fore
SplineSet
70 710 m 0
 70 780 100 850 140 890 c 1
 150 770 190 720 240 690 c 1
 800 690 l 1
 850 720 890 770 900 890 c 1
 940 850 970 780 970 710 c 0
 970 640 940 580 900 540 c 1
 900 90 l 2
 900 10 840 -30 740 -30 c 2
 300 -30 l 2
 200 -30 140 10 140 90 c 2
 140 540 l 1
 100 580 70 640 70 710 c 0
220 290 m 1
 230 170 380 90 520 90 c 0
 660 90 810 170 820 290 c 1
 720 240 640 230 520 230 c 0
 400 230 320 240 220 290 c 1
320 460 m 0
 320 405 351 360 390 360 c 0
 425 360 455 395 460 445 c 1
 360 550 l 1
 337 535 320 500 320 460 c 0
580 445 m 1
 585 395 615 360 650 360 c 0
 689 360 720 405 720 460 c 0
 720 500 703 535 680 550 c 1
 580 445 l 1
EndSplineSet
Validated: 1
EndChar

StartChar: u1F61F
Encoding: 128543 128543 46
Width: 900
VWidth: -40
Flags: MW
LayerCount: 2
Fore
SplineSet
70 90 m 2
 70 570 l 2
 70 650 130 690 230 690 c 2
 670 690 l 2
 770 690 830 650 830 570 c 2
 830 90 l 2
 830 10 770 -30 670 -30 c 2
 230 -30 l 2
 130 -30 70 10 70 90 c 2
190 120 m 1
 215 100 l 1
 285 170 365 190 450 190 c 0
 535 190 615 170 685 100 c 1
 710 120 l 1
 650 230 540 270 450 270 c 0
 360 270 250 230 190 120 c 1
250 445 m 1
 255 395 285 360 320 360 c 0
 359 360 390 405 390 460 c 0
 390 500 373 535 350 550 c 1
 250 445 l 1
510 460 m 0
 510 405 541 360 580 360 c 0
 615 360 645 395 650 445 c 1
 550 550 l 1
 527 535 510 500 510 460 c 0
EndSplineSet
Validated: 1
EndChar

StartChar: u1F47D
Encoding: 128125 128125 47
Width: 780
VWidth: 0
Flags: MW
LayerCount: 2
Fore
SplineSet
70 400 m 0
 70 590 190 720 390 720 c 0
 590 720 710 590 710 400 c 0
 710 260 680 200 580 80 c 0
 530 20 460 -60 390 -60 c 0
 320 -60 250 20 200 80 c 0
 100 200 70 260 70 400 c 0
150 280 m 0
 150 200 250 120 320 120 c 0
 345 120 360 125 360 150 c 0
 360 210 255 345 200 345 c 0
 165 345 150 315 150 280 c 0
325 50 m 1
 335 30 360 20 390 20 c 0
 420 20 445 30 455 50 c 1
 325 50 l 1
420 150 m 0
 420 125 435 120 460 120 c 0
 530 120 630 200 630 280 c 0
 630 315 615 345 580 345 c 0
 525 345 420 210 420 150 c 0
EndSplineSet
Validated: 1
EndChar

StartChar: u1F680
Encoding: 128640 128640 48
Width: 920
VWidth: 0
Flags: MW
LayerCount: 2
Fore
SplineSet
70 -120 m 1
 225 120 l 1
 310 35 l 1
 70 -120 l 1
145 285 m 1
 190 360 l 1
 426 395 l 1
 585 565 l 2
 604 586 755 660 825 660 c 0
 845 660 850 655 850 635 c 0
 850 565 775 414 755 395 c 2
 585 236 l 1
 550 0 l 1
 475 -45 l 1
 440 100 l 1
 365 65 l 1
 255 175 l 1
 290 250 l 1
 145 285 l 1
EndSplineSet
Validated: 1
EndChar

StartChar: u1F30D
Encoding: 127757 127757 49
Width: 920
VWidth: 0
Flags: MW
LayerCount: 2
Fore
SplineSet
70 330 m 0
 70 545 245 720 460 720 c 0
 675 720 850 545 850 330 c 0
 850 115 675 -60 460 -60 c 0
 245 -60 70 115 70 330 c 0
110 330 m 1
 110 252 135 181 178 123 c 1
 162 234 l 1
 110 330 l 1
185 547 m 1
 231 558 l 1
 270 615 325 645 375 654 c 1
 296 599 l 1
 374 618 l 1
 430 649 l 1
 414 677 l 1
 322 665 240 617 185 547 c 1
236 331 m 1
 269 265 l 1
 367 256 l 1
 420 56 l 1
 485 56 l 1
 559 146 l 1
 555 202 l 1
 587 227 612 258 622 298 c 1
 572 286 l 1
 507 388 l 1
 522 398 l 1
 586 308 l 1
 649 363 l 1
 616 367 594 383 585 411 c 1
 699 393 l 1
 740 309 l 1
 758 421 l 1
 809 361 l 1
 796 509 690 631 550 668 c 1
 550 634 531 606 504 590 c 1
 468 611 l 1
 399 571 l 1
 423 548 l 1
 460 592 l 1
 453 538 l 1
 408 538 386 531 358 516 c 1
 352 488 l 1
 321 495 l 1
 308 460 l 1
 335 452 l 1
 350 471 362 483 391 490 c 1
 421 457 l 1
 403 451 l 1
 414 442 l 1
 430 461 l 1
 407 493 l 1
 430 493 443 479 451 444 c 1
 492 504 l 1
 542 483 l 1
 537 470 l 1
 478 465 l 1
 478 443 l 1
 523 440 l 1
 509 404 l 1
 427 404 403 406 386 443 c 1
 318 447 l 1
 268 417 243 378 236 331 c 1
333 538 m 1
 373 528 l 1
 373 568 l 1
 333 538 l 1
555 499 m 1
 575 510 l 1
 602 454 l 1
 584 450 l 1
 555 499 l 1
566 100 m 1
 584 93 l 1
 614 162 l 1
 576 138 l 1
 566 100 l 1
EndSplineSet
Validated: 1
EndChar

StartChar: u1F30E
Encoding: 127758 127758 50
Width: 920
VWidth: 0
Flags: MW
LayerCount: 2
Fore
SplineSet
70 330 m 0
 70 545 245 720 460 720 c 0
 675 720 850 545 850 330 c 0
 850 115 675 -60 460 -60 c 0
 245 -60 70 115 70 330 c 0
229 575 m 1
 283 583 l 1
 283 521 274 492 256 457 c 1
 286 353 l 1
 292 354 l 1
 283 416 l 1
 324 328 l 1
 483 259 l 1
 463 204 l 1
 501 143 l 1
 538 129 l 1
 507 6 l 1
 524 -2 l 1
 554 16 703 141 714 242 c 1
 646 254 l 1
 628 278 l 1
 505 304 l 1
 487 270 l 1
 442 288 l 1
 442 314 l 1
 411 314 l 1
 420 349 l 1
 402 349 l 1
 396 330 l 1
 372 330 359 338 359 363 c 0
 359 385 371 399 431 404 c 1
 449 371 l 1
 458 374 l 1
 445 410 l 1
 470 434 l 1
 475 461 l 1
 522 500 l 1
 495 513 l 1
 529 540 l 1
 447 579 l 1
 447 525 l 1
 392 557 l 1
 424 591 l 1
 331 607 l 1
 317 632 l 1
 229 575 l 1
263 620 m 1
 292 620 l 1
 333 656 l 1
 308 646 284 635 263 620 c 1
354 614 m 1
 450 598 l 1
 450 587 l 1
 480 575 l 1
 480 597 l 1
 432 619 l 1
 445 647 l 1
 354 614 l 1
394 495 m 1
 414 509 l 1
 449 487 l 1
 416 465 l 1
 416 495 l 1
 394 495 l 1
438 357 m 1
 479 340 l 1
 498 348 l 1
 442 363 l 1
 438 357 l 1
447 634 m 1
 542 579 l 1
 536 633 l 1
 465 657 l 1
 447 634 l 1
499 332 m 1
 534 339 l 1
 534 346 l 1
 504 346 l 1
 499 332 l 1
528 514 m 1
 554 518 l 1
 531 537 l 1
 528 514 l 1
593 626 m 1
 627 592 l 1
 639 606 l 1
 593 626 l 1
624 639 m 1
 666 581 l 1
 689 565 l 1
 679 550 l 1
 720 525 l 1
 687 596 l 1
 668 612 646 627 624 639 c 1
723 561 m 1
 723 500 745 407 784 355 c 1
 806 380 l 1
 796 449 766 512 723 561 c 1
EndSplineSet
Validated: 1
EndChar

StartChar: u1F30F
Encoding: 127759 127759 51
Width: 920
VWidth: 0
Flags: MW
LayerCount: 2
Fore
SplineSet
70 330 m 0
 70 545 245 720 460 720 c 0
 675 720 850 545 850 330 c 0
 850 115 675 -60 460 -60 c 0
 245 -60 70 115 70 330 c 0
113 379 m 1
 183 397 l 1
 162 430 l 1
 169 468 l 1
 172 444 180 424 204 416 c 1
 224 294 l 1
 294 377 l 1
 331 328 l 1
 331 279 l 1
 346 249 l 1
 365 234 l 1
 365 252 l 1
 337 284 l 1
 347 313 l 1
 375 278 l 1
 403 297 l 1
 380 343 l 1
 420 350 448 365 471 401 c 1
 453 437 l 1
 480 455 l 1
 497 429 l 1
 511 438 l 1
 495 464 l 1
 519 481 537 498 537 535 c 1
 514 543 l 1
 529 566 l 1
 569 572 l 1
 592 533 l 1
 592 619 l 1
 459 615 l 1
 446 632 l 1
 328 626 l 1
 347 650 l 1
 312 647 l 1
 207 598 130 498 113 379 c 1
190 507 m 1
 214 546 l 1
 234 550 l 1
 196 496 l 1
 190 507 l 1
313 262 m 1
 336 184 389 164 489 164 c 1
 404 174 371 196 365 224 c 1
 313 262 l 1
392 231 m 1
 397 212 414 198 434 195 c 1
 453 253 l 1
 441 263 l 1
 392 231 l 1
422 101 m 1
 441 48 l 1
 522 66 l 1
 559 44 l 1
 594 48 616 63 634 96 c 1
 592 168 l 1
 578 129 l 1
 549 139 l 1
 555 158 l 1
 529 161 l 1
 422 101 l 1
451 192 m 1
 484 192 l 1
 460 225 l 1
 451 192 l 1
458 316 m 1
 469 300 l 1
 476 325 l 1
 465 335 l 1
 458 316 l 1
481 271 m 1
 490 254 l 1
 502 263 l 1
 495 284 l 1
 481 271 l 1
509 420 m 1
 516 410 l 1
 566 442 l 1
 561 475 l 1
 574 486 l 1
 545 533 l 1
 556 455 l 1
 509 420 l 1
518 226 m 1
 528 206 l 1
 568 196 l 1
 576 180 l 1
 635 176 l 1
 619 205 l 1
 518 226 l 1
569 35 m 1
 572 20 l 1
 592 40 l 1
 569 35 l 1
569 640 m 1
 661 587 l 1
 632 624 l 1
 651 624 l 1
 630 638 606 649 582 658 c 1
 569 640 l 1
EndSplineSet
Validated: 1
EndChar

StartChar: u1F30C
Encoding: 127756 127756 52
Width: 980
VWidth: 0
Flags: MW
LayerCount: 2
Fore
SplineSet
70 275 m 0
 70 472 228 660 440 660 c 0
 609 660 745 544 745 370 c 0
 745 266 664 150 540 150 c 0
 430 150 370 220 370 305 c 1
 352 305 340 275 340 245 c 0
 340 162 439 75 555 75 c 0
 707 75 865 214 865 420 c 0
 865 548 803 655 750 720 c 1
 815 665 910 556 910 385 c 0
 910 188 752 0 540 0 c 0
 371 0 235 116 235 290 c 0
 235 394 316 510 440 510 c 0
 550 510 610 440 610 355 c 1
 628 355 640 385 640 415 c 0
 640 498 541 585 425 585 c 0
 273 585 115 446 115 240 c 0
 115 112 177 5 230 -60 c 1
 165 -5 70 104 70 275 c 0
EndSplineSet
Validated: 1
EndChar

StartChar: uni26A1
Encoding: 9889 9889 53
Width: 830
VWidth: 0
Flags: MW
LayerCount: 2
Fore
SplineSet
70 185 m 1
 340 660 l 1
 545 660 l 1
 350 380 l 1
 760 465 l 1
 330 -60 l 1
 465 270 l 1
 70 185 l 1
EndSplineSet
Validated: 1
EndChar

StartChar: uni2604
Encoding: 9732 9732 54
Width: 850
VWidth: 0
Flags: MW
LayerCount: 2
Fore
SplineSet
70 760 m 1
 451 434 l 1
 364 620 l 1
 623 376 l 1
 534 319 l 1
 367 383 l 1
 307 237 l 1
 121 527 l 1
 313 387 l 1
 70 760 l 1
335 147 m 1
 400 306 l 1
 541 252 l 1
 673 337 l 1
 780 194 l 1
 780 101 750 54 701 0 c 1
 618 0 562 -8 504 -36 c 1
 335 147 l 1
EndSplineSet
Validated: 1
EndChar

StartChar: uni25C6
Encoding: 9670 9670 55
Width: 840
VWidth: 0
Flags: MW
HStem: -30 720
VStem: 60 720
LayerCount: 2
Fore
SplineSet
60 330 m 1
 420 690 l 1
 780 330 l 1
 420 -30 l 1
 60 330 l 1
EndSplineSet
Validated: 1
EndChar

StartChar: H18533
Encoding: 9679 9679 56
Width: 800
VWidth: 0
Flags: MW
HStem: 0 660
VStem: 70 660
LayerCount: 2
Fore
SplineSet
70 330 m 0
 70 512 218 660 400 660 c 0
 582 660 730 512 730 330 c 0
 730 148 582 0 400 0 c 0
 218 0 70 148 70 330 c 0
EndSplineSet
Validated: 1
EndChar

StartChar: uni274C
Encoding: 10060 10060 57
Width: 800
VWidth: 0
Flags: MW
LayerCount: 2
Fore
SplineSet
70 145 m 1
 255 330 l 1
 70 515 l 1
 215 660 l 1
 400 475 l 1
 585 660 l 1
 730 515 l 1
 545 330 l 1
 730 145 l 1
 585 0 l 1
 400 185 l 1
 215 0 l 1
 70 145 l 1
EndSplineSet
Validated: 1
EndChar

StartChar: uni2316
Encoding: 8982 8982 58
Width: 920
VWidth: 0
Flags: MW
HStem: 280 100<70 310 410 510 610 850>
VStem: 410 100<-60 180 280 380 480 720>
LayerCount: 2
Fore
SplineSet
70 280 m 1
 70 380 l 1
 310 380 l 1
 310 280 l 1
 70 280 l 1
410 -60 m 1
 410 180 l 1
 510 180 l 1
 510 -60 l 1
 410 -60 l 1
410 280 m 1
 410 380 l 1
 510 380 l 1
 510 280 l 1
 410 280 l 1
410 480 m 1
 410 720 l 1
 510 720 l 1
 510 480 l 1
 410 480 l 1
610 280 m 1
 610 380 l 1
 850 380 l 1
 850 280 l 1
 610 280 l 1
EndSplineSet
Validated: 1
EndChar

StartChar: u1F525
Encoding: 128293 128293 60
Width: 790
VWidth: 0
Flags: MW
LayerCount: 2
Fore
SplineSet
70 256 m 0
 70 330 90 390 122 436 c 1
 122 345 144 313 192 313 c 0
 224 313 257 337 257 378 c 0
 257 415 232 482 232 554 c 0
 232 626 256 703 354 760 c 1
 332 702 323 653 323 613 c 0
 323 507 387 459 444 459 c 0
 490 459 538 489 538 576 c 1
 569 542 583 503 583 464 c 0
 583 402 549 347 549 297 c 0
 549 256 582 232 614 232 c 0
 671 232 688 283 688 367 c 1
 705 338 720 281 720 232 c 0
 720 86 582 -20 428 -20 c 1
 558 29 582 94 582 167 c 1
 550 110 517 102 501 102 c 0
 403 102 509 289 338 419 c 1
 366 359 377 307 377 265 c 0
 377 175 328 126 281 126 c 0
 241 126 201 158 185 226 c 1
 185 131 213 41 338 -20 c 1
 143 12 70 134 70 256 c 0
EndSplineSet
Validated: 1
EndChar

StartChar: u1F4A3
Encoding: 128163 128163 61
Width: 900
VWidth: 0
Flags: MW
LayerCount: 2
Fore
SplineSet
70 200 m 0
 70 274 106 339 162 379 c 1
 190 244 l 1
 260 274 l 1
 345 239 l 1
 330 134 l 1
 460 60 l 1
 420 11 358 -20 290 -20 c 0
 168 -20 70 78 70 200 c 0
107 623 m 1
 216 623 l 1
 221 534 l 1
 149 489 l 1
 107 623 l 1
266 307 m 1
 334 720 l 1
 462 691 l 1
 266 307 l 1
385 253 m 1
 661 584 l 1
 746 481 l 1
 385 253 l 1
458 119 m 1
 830 208 l 1
 830 97 l 1
 458 119 l 1
587 303 m 1
 708 359 l 1
 703 250 l 1
 627 237 l 1
 587 303 l 1
EndSplineSet
Validated: 1
EndChar

StartChar: uni26D4
Encoding: 9940 9940 62
Width: 840
VWidth: 0
Flags: MW
LayerCount: 2
Fore
SplineSet
70 185 m 1
 70 475 l 1
 275 680 l 1
 565 680 l 1
 770 475 l 1
 770 185 l 1
 565 -20 l 1
 275 -20 l 1
 70 185 l 1
170 250 m 1
 670 250 l 1
 670 410 l 1
 170 410 l 1
 170 250 l 1
EndSplineSet
Validated: 1
EndChar
